# xmcd CD database file
#
# Track frame offsets:
#	150
#	13140
#	30264
#	49039
#	67174
#	81613
#	102226
#	115633
#	133882
#	147021
#	161506
#	174312
#	184947
#	201561
#	210749
#
# Disc length: 3045 seconds
#
# Revision: 1
# Processed by: cddbd v1.5.2PL0 Copyright (c) Steve Scherf et al.
# Submitted via: CDex 1.70beta2
#
DISCID=d90be30f
DTITLE=Sinti Swing Quartet - Brazil - Suisa
DYEAR=2007
DGENRE=Gypsy Jazz
TTITLE0=Brazil
TTITLE1=Joy
TTITLE2=Stardust
TTITLE3=Sinti Swing
TTITLE4=Jumping at the Woodside
TTITLE5=Menina Moca
TTITLE6=Viper's Dream
TTITLE7=Pour Tanguy
TTITLE8=Gypsy Bop
TTITLE9=Insensiblement
TTITLE10=Swing Guitars
TTITLE11=Swing Waltz
TTITLE12=Bernie's Tune
TTITLE13=Adieu
TTITLE14=Recado Bossa Nova
EXTD=YEAR: 2007
EXTT0=
EXTT1=
EXTT2=
EXTT3=
EXTT4=
EXTT5=
EXTT6=
EXTT7=
EXTT8=
EXTT9=
EXTT10=
EXTT11=
EXTT12=
EXTT13=
EXTT14=
PLAYORDER=
